<svg width="151" height="70" viewBox="0 0 151 70" fill="none" xmlns="http://www.w3.org/2000/svg">
<g clip-path="url(#clip0_2322_1479)">
<path d="M148.723 43.7938C149.321 44.4938 150.211 47.0313 150.138 47.9209C150.036 49.35 148.299 51.5229 147.073 52.1938C144.168 53.7979 139.658 52.8354 136.505 52.4271C136.753 56.7292 140.359 66.675 135.907 69.5334C134.024 70.7438 133.134 69.2854 133.134 67.4625L132.944 68.0604L132.36 68.0604L129.776 50.9396C129.309 50.225 129.193 50.0792 129.397 49.1896L127.602 48.4604C127.543 51.7125 127.134 55.3292 126.244 58.4792C123.661 67.6229 114.333 74.1709 106.904 65.2604C106.276 64.5021 105.255 62.4167 104.817 61.9938C104.335 61.5417 103.634 61.775 103.123 61.1042C102.233 59.9229 101.065 54.4979 100.861 52.8646C100.292 48.3584 100.277 36.8375 104.116 33.7896C105.911 32.3604 108.32 32.4479 109.75 34.2854C111.283 36.2688 110.144 38.0917 109.955 40.2209C109.487 45.5146 110.013 50.8521 111.443 55.9563C111.677 56.7875 112.29 59.0479 112.669 59.6604C113.764 61.425 117.092 60.8709 118.289 59.4271C119.617 57.8084 119.325 53.8854 119.471 51.8875C119.822 46.6813 120.011 41.4896 119.88 36.2688C119.953 35.875 120.639 35.2042 121.004 35.0292C122.318 34.3875 123.018 35.6417 123.573 33.5854C124.595 32.9146 125.47 34.0959 126.23 33.9209C126.901 33.7604 126.813 32.0979 128.507 31.8354C132.068 31.2813 136.505 34.475 139.366 36.4146C140.855 37.4354 142.548 38.6313 143.964 39.7542C145.073 40.6292 147.964 42.8604 148.752 43.7792L148.723 43.7938ZM109.531 52.6458C109.473 49.8896 109.02 47.1917 109.137 44.4354C109.21 42.8167 109.619 40.9792 109.648 39.375C109.648 39.0834 109.75 38.8938 109.341 38.7917C108.218 42.875 108.407 47.5709 109.166 51.7271C109.21 51.975 109.21 52.6458 109.531 52.6458ZM133.528 39.9729L135.104 46.2146C138.213 47.1917 141.833 48.0813 145.132 47.7021C145.993 47.6 145.905 47.3375 145.511 46.7104C144.709 45.4854 136.111 40.6 134.491 40.1042C134.17 40.0021 133.863 39.9292 133.542 39.9729L133.528 39.9729ZM138.578 52.2375C140.505 52.4271 142.68 52.1063 144.621 52.2375C144.665 51.8875 144.168 52.0479 143.935 52.0334C141.366 51.9313 138.841 51.975 136.301 51.4354C135.921 51.7125 138.374 52.2084 138.578 52.2229L138.578 52.2375ZM136.505 61.5417L136.505 65.2021C136.505 65.3771 135.352 68.3813 136.418 67.2875C136.841 66.85 137.104 65.2313 137.118 64.6042L136.505 61.5417Z" fill="white"/>
<path d="M35.8779 51.3333C36.9581 50.1083 39.0746 47.8333 40.8261 47.8917C42.1252 47.9354 41.7749 48.8979 42.2712 49.0438C42.5047 49.1021 43.2637 48.825 43.8038 48.8833C45.964 49.1021 48.1973 52.4709 49.978 53.6229L52.5908 50.4875C53.5979 49.4958 56.0355 47.0313 57.5536 48.1542C57.6995 48.2563 58.3564 49.7583 58.4001 49.9917C58.6921 51.7563 55.4371 53.7396 54.8386 55.4167C55.3057 55.6063 55.4079 54.3959 55.6268 55.3146L53.7147 57.6917C55.4371 60.3167 57.7287 62.8104 59.2321 65.5813C59.67 66.3834 60.4874 67.7104 59.6408 68.4979C59.2467 68.8625 58.5899 69.0959 58.1812 68.6C56.7216 66.675 55.5393 64.5459 54.0212 62.6646C53.7877 62.3875 52.3718 60.4917 52.0507 60.7834C53.6271 63.1604 55.8604 65.3042 57.1595 67.8563C57.4952 68.5271 56.9989 68.7313 56.5902 68.3813C55.3495 66.6313 54.065 64.6625 52.6346 63.0729C52.3718 62.7813 50.9414 61.2063 50.6641 61.3813L46.0954 68.2208C45.7889 68.4542 45.3656 68.1188 45.0883 68.2208C44.5044 68.425 44.1979 69.8104 42.9134 69.4167C42.169 69.1833 40.9575 66.6167 40.3882 65.7854C39.2059 64.0792 37.8631 62.0959 36.2866 60.7834C35.9509 61.0021 36.3596 61.2208 36.491 61.3813C37.0602 62.125 41.9646 67.9146 41.337 68.5125C40.8261 68.6 40.9137 68.5125 40.6802 68.2646C39.8482 67.4188 35.7174 61.1771 34.9 61.3813L29.9372 68.4688C29.0614 67.6958 28.8425 68.8917 28.1273 69.2708C27.0179 69.8542 26.0254 68.9938 26.0838 67.8417C26.1422 66.8208 28.536 62.2125 29.1636 61.0021C29.5577 60.2584 31.499 57.575 31.3385 57.0208C31.2071 56.5542 27.3975 53.3021 26.945 53.2583C26.4925 53.2146 26.1714 53.5938 25.7627 53.6521C23.3251 53.9146 20.0117 53.1563 17.4573 53.0542C16.6983 53.025 11.8231 52.9813 11.5896 53.1417L11.3852 53.7396C11.9107 57.4 12.5237 61.3229 12.2026 65.0417C12.0421 66.9813 10.9181 69.3292 8.69949 69.475C5.824 69.6646 6.29109 66.2521 6.04295 64.4438C5.54667 60.7688 5.0504 57.0792 4.6271 53.3896C3.73673 52.8792 2.10193 51.8729 1.89758 50.7646C1.81 50.2688 1.8246 48.9563 1.97056 48.4896C2.20411 47.7458 3.66374 46.9729 3.69294 46.6229C3.31343 44.0417 2.55442 41.5625 1.92678 39.0542C1.81001 38.5729 1.95597 38.0479 1.8392 37.5667C1.72243 37.0854 1.08019 36.4729 0.948821 35.6854C0.729875 34.3875 0.890436 32.8854 2.2479 32.3167C3.60536 31.7479 4.05785 32.4333 5.26935 32.7688C10.2905 34.1396 16.4064 34.9563 21.6319 35.4375C23.9673 35.6563 26.9742 34.8688 28.6381 36.9542C30.6378 39.4625 28.9739 43.6042 25.6021 43.5604C24.5804 43.5458 23.5148 42.9042 22.5952 42.7875C20.8291 42.5542 18.6688 42.6125 16.8589 42.3792C14.1439 42.0292 11.429 41.5625 8.74328 41.0083L8.50974 41.4021L9.70664 46.1417C10.1007 46.6813 12.0275 46.1417 12.6843 46.1417C15.8809 46.0542 23.1061 45.8646 25.9232 46.7979C27.3683 47.2792 27.3683 48.0229 28.2586 48.825C28.7403 49.2625 29.368 49.3938 29.7475 49.7146C31.2655 50.9688 32.5354 52.4708 34.1118 53.6667C34.7102 52.9229 35.2503 52.1063 35.8779 51.3917L35.8779 51.3333ZM11.0057 34.6208L5.065 33.2354C5.61966 35.3063 9.03521 34.3729 10.7138 35.0146L11.0057 34.6208ZM41.9938 52.5729C41.8479 52.4708 41.7603 52.0625 41.6289 52.0479L38.9578 55.1104L39.3519 55.6938L37.8047 57.8375L43.0302 64.8959L47.3069 57.0938C47.2631 56.6125 43.3075 53.3313 42.6361 52.8209C42.4463 52.6896 42.1836 52.675 42.0084 52.5584L41.9938 52.5729Z" fill="white"/>
<path d="M53.0287 5.32292C52.7514 5.03125 50.6057 6.86875 50.3284 7.175C47.3069 10.3833 46.0225 16.1146 48.9855 19.7604C51.9486 23.4062 57.3784 20.9417 57.8017 16.5229C57.9477 15.0208 57.5828 14.2188 57.4076 12.9354C57.1303 10.7771 58.3272 10.0333 60.3707 10.2813C60.5021 9.56667 60.181 8.88125 60.1664 8.21042C60.1226 6.89792 59.962 3.79167 60.1664 2.66875C60.2685 2.11459 61.626 0.670836 62.2682 0.583336C66.1655 0.087503 63.0564 6.475 64.2387 8.29792L64.735 5.73125L65.1437 7.6125L65.4356 7.90417C67.7857 6.75209 70.1503 5.62917 72.4857 4.44792C73.4783 3.9375 75.3466 2.5375 76.3537 2.5375C77.5798 2.5375 77.1565 3.15 77.4923 3.48542C77.6528 3.64584 78.2659 3.61667 78.3972 4.03959C77.2003 6.86875 74.2811 7.86042 72.0186 9.52292C71.8435 9.65417 71.6245 9.7125 71.6829 9.975C72.9966 10.3104 74.3102 11.9583 75.1422 13.0667C76.2662 14.5833 77.6674 17.0917 78.2367 18.8854C78.3097 19.1042 78.6746 19.9354 78.2367 19.9792C77.6382 17.9667 76.5143 15.7646 75.0693 14.2333C75.6677 15.7938 76.7041 17.2229 77.3901 18.7396C78.0031 20.0958 79.8277 23.9021 77.1565 24.1354C75.3028 24.3104 75.478 23.0125 74.9525 21.9625C73.5512 19.1917 70.8509 15.7063 68.6468 13.5042C67.6543 12.5271 66.3552 11.0542 65.3627 12.9354C65.8152 15.2542 65.7714 17.6896 66.2093 20.0083C66.3844 20.9417 67.2456 23.0854 67.158 23.8146C66.9537 25.3896 63.3046 25.2729 62.312 24.3104C61.3195 23.3479 61.48 21.0292 61.2027 19.775C59.9766 21.5542 59.2322 22.7938 57.2471 23.8438C52.2113 26.4979 47.3653 24.5292 44.4606 19.9792C43.0594 22.9687 41.0159 25.5062 37.3376 25.0979C31.9224 24.5 31.4553 17.2375 31.4699 13.0375C29.9956 13.1687 28.463 12.6292 27.0034 12.8333C26.726 12.8771 26.6677 12.7167 26.7114 13.1396C27.9083 15.1083 32.2435 22.4 30.8568 24.3979C30.3313 25.1562 28.8279 24.5292 28.0251 24.7187C26.6677 21.9042 25.6751 18.9 24.3614 16.0708C24.0695 15.4292 23.1353 13.3583 22.7558 12.9792C22.099 12.3375 20.5518 12.7458 19.6906 12.6292C19.4862 12.6583 19.5592 13.3 19.5738 13.5187C19.8511 16.3625 20.581 20.8833 20.1577 23.6104C20.0555 24.2812 19.1797 25.1271 18.5083 25.0687C18.1434 25.0396 16.9173 23.7854 16.8297 23.3917C16.6691 22.6917 16.8589 21.8312 16.7713 21.0875C16.421 18.1562 15.7204 15.225 15.2825 12.2937C15.0927 11.8271 14.3191 11.8854 14.071 11.5937C13.998 11.5062 14.0418 11.2146 13.9542 11.1417C13.4287 10.6312 12.7427 10.5729 12.8011 9.58124C12.8887 8.15208 14.3483 8.42916 14.4213 8.18124C14.4943 7.16041 13.7791 5.74583 13.8082 4.82708C13.8228 4.17083 14.4505 4.01041 14.3921 3.68958C14.3337 3.33958 13.5747 2.71249 13.6331 1.88124C13.7353 0.335411 15.8955 0.262494 17.0486 0.437494C19.9971 0.874995 27.8208 5.1625 30.1562 7.14583C30.6963 7.6125 31.8202 9.625 32.4332 8.56041C32.8565 7.83125 33.9075 4.33125 34.4767 3.95208L35.0314 4.14166C35.6736 2.08541 38.374 0.612498 40.4612 1.225C40.9575 1.37083 41.264 2.14375 41.5998 2.45C41.8625 2.69792 42.2858 2.72708 42.5777 3.04792C43.6287 4.17083 44.1395 7.05833 44.6504 8.50208C44.9423 8.50208 46.1538 6.63542 46.5333 6.2125C48.0951 4.47708 51.7588 1.25417 54.1672 1.37083C54.4446 1.37083 55.1014 1.4875 55.2766 1.70625C56.0648 2.625 55.6123 6.97083 55.6561 8.41458C55.7145 10.8354 55.9918 13.2854 55.875 15.7354C55.8604 16.1146 55.5393 16.4063 55.5393 16.5229C55.5393 16.6542 56.3129 17.7042 55.0284 17.5729C52.62 17.3396 52.839 14.8021 52.7076 13.1396C52.693 12.8917 52.5033 12.6146 52.5033 12.5562L52.5033 7.30625L52.693 7.30625L52.8974 8.89583L53.0871 8.89583L53.0871 5.3375L53.0287 5.32292ZM35.3963 20.1833C36.0385 21.875 38.1696 23.2604 39.5271 21.4375C41.2202 19.1771 41.0159 13.7229 40.724 10.9958C40.4904 8.91041 40.1255 6.43125 38.8702 4.73958L37.9945 5.35208L38.1696 6.31458L37.5712 6.11041C37.3668 7.30625 36.7246 8.44375 36.4764 9.66875C36.0823 11.5646 36.0385 14.3646 36.1845 16.3042C36.3013 17.7479 37.7755 20.6792 35.3963 20.1687L35.3963 20.1833ZM26.4633 9.08541C24.6971 7.48125 22.0406 6.09583 19.7636 5.38124C19.4279 5.27916 18.2893 4.79791 18.1434 5.22083C17.9536 5.78958 18.5667 5.74583 18.7856 6.15416C19.0338 6.62083 19.0629 8.18124 19.4279 8.28333C20.0263 8.35624 20.2307 7.71458 20.7123 7.56874C21.8363 7.21874 22.858 8.66249 23.6316 8.83749C24.4052 9.0125 25.6313 8.93958 26.4633 9.07083L26.4633 9.08541Z" fill="white"/>
<path d="M69.2891 42.8458L69.6978 43.05C75.3903 40.5708 80.8348 37.5958 86.2938 34.6646C86.8777 34.4458 87.7827 34.8542 88.133 35.3063C88.7314 36.0792 88.06 36.4292 89.6364 36.5896C90.0305 37.1438 89.2569 38.1938 88.9358 38.6896C87.7243 40.5271 85.0969 42.4812 83.2432 43.6917C82.4842 44.1875 79.6963 45.5146 79.346 45.8937C78.9373 46.3458 79.273 46.6521 79.813 46.5792C79.9152 46.5792 80.0904 46.3167 80.3093 46.3021C81.0099 46.2875 84.9218 51.1146 85.5202 51.9896C87.3302 54.6146 90.6436 61.1333 90.9209 64.2104C90.9355 64.4146 91.0377 64.9687 90.7165 64.9104C89.4467 60.0542 87.082 55.3146 83.8708 51.45C83.5935 51.5958 83.9146 51.9312 84.0022 52.1062C85.6954 55.4458 89.6364 61.0167 90.1035 64.6187C90.3808 66.7917 89.1693 68.4542 86.8631 68.0604C84.9947 67.7396 85.0385 65.9896 84.4547 64.7354C82.4842 60.5062 77.8425 54.6 74.4416 51.3625C73.7847 50.7354 72.4711 49.3792 71.6099 49.4667C70.2816 49.5979 69.8437 50.3417 69.9021 51.5521C70.0918 55.3 70.7341 60.0979 71.5515 63.7583C71.8142 64.9687 72.7776 66.7042 72.3981 67.8854C72.077 68.9062 69.9897 69.4896 69.0117 69.475C65.8151 69.4312 64.3263 68.6 63.7862 65.3771C62.4288 57.4583 61.8011 46.9583 61.5822 38.8792C61.553 37.6542 61.3778 35.175 62.093 34.2271C63.0564 33.7604 63.3337 32.4333 64.2533 32.025C65.8881 31.325 68.1651 32.1708 68.3403 34.125C68.4279 35.0292 67.99 35.5396 67.9316 36.2979C67.7418 38.675 67.9316 41.3146 67.7418 43.7208L68.2965 43.3854C68.5008 42.2479 68.3841 39.4917 68.822 38.5729C68.8658 38.4854 69.0847 38.325 69.1139 38.3833C68.9241 38.8062 69.3182 39.4479 69.3182 39.6667L69.3182 42.8312L69.2891 42.8458Z" fill="white"/>
<path d="M112.173 0.904184C112.567 1.13752 113.034 1.16668 113.385 1.38543C114.611 2.21668 114.202 5.10418 114.538 6.37293C114.582 6.53335 114.713 6.70835 114.888 6.70835L115.093 5.71669L115.487 10.9084C118.231 11.7542 118.523 14.1021 116.684 16.1C117.005 18.3896 117.91 20.9417 118.07 23.2313C118.158 24.5 117.924 26.1625 116.231 25.6667C114.334 25.1125 113.005 17.8354 112.334 16.1L109.575 16.2313L108.364 22.9396C108.072 23.2167 108.013 22.925 107.97 22.6479C107.838 21.6709 108.276 20.7375 108.159 19.775L107.867 19.9646C107.502 21.8313 107.721 26.0896 104.744 25.4625C104.145 25.3313 103.751 24.7479 103.109 24.7042C102.54 24.6604 101.941 24.9375 101.328 24.9375C98.2629 24.9375 95.1101 24.5 92.0011 24.7188C90.8042 24.8063 87.5054 25.7542 86.6442 25.1417C85.5641 24.3688 85.8998 22.4438 87.3594 22.225C87.2718 20.9854 87.4324 19.7167 87.3594 18.4771C87.3302 17.9229 87.1989 16.4354 87.0675 15.9979C86.8194 15.1958 85.856 15.3271 85.7538 14.1313C85.6516 12.8188 86.1771 13.0958 86.5274 12.5417C87.0675 11.6958 86.0895 8.42918 86.3523 7.21876C86.1625 6.18335 82.9221 4.98751 84.5569 3.04793C86.1917 1.10835 90.3809 2.34793 92.366 3.17918C96.3216 4.84168 100.511 8.25418 103.094 11.6375L105.269 10.675C105.868 8.8521 106.233 6.95627 106.875 5.14793C107.517 3.3396 109.064 -1.26873 111.677 0.350018C111.984 0.539601 112.086 0.860434 112.188 0.918768L112.173 0.904184ZM97.0514 11.0688C97.5769 10.5583 94.57 8.40001 94.1321 8.13751C93.4023 7.68543 91.1253 6.51876 90.3517 6.54793L89.9138 6.82501L90.6874 11.1708L97.0368 11.0542L97.0514 11.0688ZM110.918 6.70835C110.626 6.76668 110.524 7.07293 110.422 7.30627C110.261 7.68543 109.488 10.7479 109.517 10.9667C109.546 11.2 109.619 11.375 109.852 11.4479L111.502 10.9521L110.918 6.72293L110.918 6.70835ZM102.146 15.0938C101.649 14.7 101.387 15.05 100.949 15.0063C99.6496 14.875 98.3651 14.5979 97.066 14.6417L103.313 19.9792C103.78 20.0667 103.547 19.7604 103.605 19.4979C103.824 18.5208 104.101 17.5438 104.189 16.5521C104.072 16.2021 103.445 16.2458 103.109 16.0271C102.671 15.75 102.437 15.3125 102.16 15.1083L102.146 15.0938ZM100.423 21.9625C100.642 21.7584 99.4452 20.6646 99.2409 20.475C97.1828 18.5792 94.0154 16.8292 91.315 16.2167L91.9135 21.5688C94.7744 21.35 97.6353 21.2771 100.438 21.9625L100.423 21.9625Z" fill="white"/>
<path d="M130.36 12.8479L134.214 20.3729C135.104 23.2459 135.805 25.5646 131.733 24.6313C130.433 21.9042 129.485 19.0021 128.2 16.275C127.821 15.4438 126.711 12.8042 125.879 12.6584C125.15 12.5271 124.172 12.7459 123.398 12.6584L123.982 23.4354C123.923 24.0625 122.902 25.1417 122.303 25.1271C122.114 25.1271 120.727 23.7709 120.668 23.6104C120.289 22.4584 120.406 20.2854 120.201 18.9292C119.997 17.5729 119.486 13.4896 119.063 12.5417C118.727 11.7979 116.8 11.0542 116.669 9.97502C116.45 8.16669 118.085 8.56044 118.216 7.99169C118.1 6.78127 117.516 5.71669 117.705 4.49169C117.749 4.22919 118.056 3.96669 118.056 3.66044C118.056 3.35419 117.53 2.82919 117.472 2.24586C117.282 0.452106 119.092 0.262523 120.508 0.408357C124.566 0.831274 131.981 5.58544 134.915 8.38544C135.586 9.02711 136.506 9.11461 136.695 10.3688C137.323 14.8896 133.017 12.3813 130.346 12.8479L130.36 12.8479ZM130.36 9.08544C128.332 7.40836 125.018 5.64377 122.435 5.01669C122.172 4.95836 121.895 4.94377 121.836 5.22086C121.763 5.60002 122.391 5.67294 122.581 6.05211C122.77 6.43127 122.96 8.21044 123.325 8.28336C123.894 8.23961 124.361 7.51044 124.901 7.51044C125.748 7.51044 126.843 8.69169 127.514 8.83752C128.302 9.01252 129.499 8.95419 130.346 9.07086L130.36 9.08544Z" fill="white"/>
<path d="M124.799 20.7667C124.668 20.7813 124.405 20.5042 124.405 20.475L124.405 16.6104L124.595 16.6104C124.478 16.9167 124.799 17.3542 124.799 17.5L124.799 20.7667Z" fill="white"/>
<path d="M20.9168 20.7667L20.5081 18.3021L20.5081 16.2167C20.727 16.1583 20.9168 17.0625 20.9168 17.1062L20.9168 20.7667Z" fill="white"/>
<path d="M37.1771 17.0042L36.9873 17.0042C37.1041 16.6979 36.783 16.2604 36.783 16.1146L36.783 10.7625C36.783 10.6167 37.1041 10.1792 36.9873 9.87292L37.1771 9.87292L37.1771 17.0042Z" fill="white"/>
</g>
<defs>
<clipPath id="clip0_2322_1479">
<rect width="149.277" height="70" fill="white" transform="translate(0.861328)"/>
</clipPath>
</defs>
</svg>
